<svg xmlns="http://www.w3.org/2000/svg" viewBox="0 0 16 16">
  <defs><style>.cls-1{fill:#f18706;}.cls-2{fill:#a44b23;}.cls-3{fill:#fff;}.cls-4{fill:#f7f8f8;}</style></defs>
  <rect id="rect1" class="cls-1" width="16" height="16"/>
  <polygon id="polygon2" class="cls-2" points="15 1 0 1 0 0 16 0 15 1"/>
  <polygon id="polygon3" class="cls-2" points="1 15 1 0 0 0 0 16 1 15"/>
  <polygon id="polygon4" class="cls-2" points="1 15 16 15 16 16 0 16 1 15"/>
  <polygon id="polygon5" class="cls-2" points="15 1 15 16 16 16 16 0 15 1"/>
  <path class="cls-4" d="M6,13H3V3H6v.76H4v8.48H6Z"/>
  <path class="cls-4" d="M13,13H10v-.76h2V3.76H10V3h3Z"/>
  <rect
     style="fill:#C62828;"
     id="rect2"
     width="3"
     height="3"
     x="6.5"
     y="2.5"
     ry="0"
     transform="rotate(7.5)" />
  <rect
     style="fill:#1565C0;"
     id="rect3"
     width="3"
     height="3"
     x="8"
     y="5.5"
     ry="0"
     transform="rotate(4.5)" />
  <rect
     style="fill:#2E7D32;"
     id="rect4"
     width="3"
     height="3"
     x="3.5"
     y="11"
     transform="rotate(-13)" />
</svg>