<svg  xmlns="http://www.w3.org/2000/svg"
	 viewBox="0 0 16 16">
<style type="text/css">
	.st0{fill:#EEEEEE;}
	.st1{fill:#666666;}
	.st2{fill:#932A35;}
</style>
<rect id="rect1" class="st0" width="16" height="16"/>
<polygon id="polygon2" class="st1" points="15,1 0,1 0,0 16,0 "/>
<polygon id="polygon3" class="st1" points="1,15 1,0 0,0 0,16 "/>
<polygon id="polygon4" class="st1" points="1,15 16,15 16,16 0,16 "/>
<polygon id="polygon5" class="st1" points="15,1 15,16 16,16 16,0 "/>
<path id="path3" class="st2" d="M9.5,3.2v0.8c0.4,0,0.7,0.1,1,0.2c0.3,0.1,0.4,0.3,0.3,0.6l-0.2,1.8c-0.1,0.5,0,0.8,0.3,1
	C11.1,7.8,11.5,7.9,12,8c-0.5,0.1-0.9,0.2-1.2,0.4c-0.2,0.2-0.3,0.5-0.3,1l0.2,1.8c0,0.3-0.1,0.5-0.3,0.6c-0.3,0.1-0.6,0.2-1,0.2
	v0.8c0.5,0,1,0,1.4-0.1c0.4-0.1,0.7-0.3,0.9-0.5c0.2-0.2,0.3-0.6,0.2-1l-0.2-1.7c0-0.3,0.1-0.6,0.3-0.8c0.3-0.2,0.7-0.2,1.4-0.2V7.6
	c-0.6,0-1.1-0.1-1.4-0.2c-0.3-0.2-0.4-0.4-0.3-0.8L12,4.9c0.1-0.4,0-0.7-0.2-1c-0.2-0.2-0.5-0.4-0.9-0.5C10.5,3.3,10,3.2,9.5,3.2z"
	/>
<path id="path2" class="st2" d="M6.5,3.2c-0.5,0-1,0-1.4,0.1C4.7,3.5,4.4,3.7,4.2,3.9C4,4.1,3.9,4.5,4,4.9l0.2,1.7
	c0,0.3-0.1,0.6-0.3,0.8C3.6,7.5,3.2,7.6,2.5,7.6v0.9c0.7,0,1.1,0.1,1.4,0.2c0.3,0.2,0.4,0.4,0.3,0.8L4,11.1c-0.1,0.4,0,0.7,0.2,1
	c0.2,0.2,0.5,0.4,0.9,0.5c0.4,0.1,0.9,0.1,1.4,0.1v-0.8c-0.4,0-0.7-0.1-1-0.2c-0.3-0.1-0.4-0.3-0.3-0.6l0.2-1.8c0.1-0.5,0-0.8-0.3-1
	C4.9,8.2,4.5,8.1,4,8c0.5-0.1,0.8-0.2,1.1-0.4c0.2-0.2,0.3-0.6,0.3-1L5.2,4.8c0-0.3,0.1-0.5,0.3-0.6c0.3-0.1,0.6-0.2,1-0.2V3.2z"/>
</svg>
