<svg xmlns="http://www.w3.org/2000/svg" viewBox="0 0 16 16"><defs><style>.cls-1{fill:#c34943;}.cls-2{fill:#7c0309;}.cls-3{fill:#fff;}.cls-4{fill:#f7f8f8;}</style></defs><rect id="rect1" class="cls-1" width="16" height="16"/><polygon id="polygon2" class="cls-2" points="15 1 0 1 0 0 16 0 15 1"/><polygon id="polygon3" class="cls-2" points="1 15 1 0 0 0 0 16 1 15"/><polygon id="polygon4" class="cls-2" points="1 15 16 15 16 16 0 16 1 15"/><polygon id="polygon5" class="cls-2" points="15 1 15 16 16 16 16 0 15 1"/><path id="text1" class="cls-3" d="M10.63,9.45a2,2,0,0,1-.22,1,1.67,1.67,0,0,1-.61.6,2.63,2.63,0,0,1-.85.32,5.25,5.25,0,0,1-1,.09H6V4.59H7.84a4.63,4.63,0,0,1,.92.08,2.8,2.8,0,0,1,.8.28,1.5,1.5,0,0,1,.56.53,1.53,1.53,0,0,1,.21.83,1.39,1.39,0,0,1-.18.73,1.3,1.3,0,0,1-.47.49,2,2,0,0,1-.61.27A2.81,2.81,0,0,1,9.8,8a1.38,1.38,0,0,1,.59.51,1.54,1.54,0,0,1,.24.9Zm-1.46-3a.84.84,0,0,0-.32-.74,1.59,1.59,0,0,0-.91-.22H7.12v2H8a1.37,1.37,0,0,0,.87-.24,1,1,0,0,0,.29-.77Zm.26,3a1.22,1.22,0,0,0-.18-.71.89.89,0,0,0-.48-.35,2,2,0,0,0-.68-.11h-1v2.26h.93a2.8,2.8,0,0,0,.64-.08,1.15,1.15,0,0,0,.53-.32,1,1,0,0,0,.21-.69Z"/><path class="cls-4" d="M6,13H3V3H6v.76H4v8.48H6Z"/><path class="cls-4" d="M13,13H10v-.76h2V3.76H10V3h3Z"/></svg>