<?xml version="1.0" encoding="UTF-8" standalone="no"?>
<svg
   viewBox="0 0 16 16"
   xmlns="http://www.w3.org/2000/svg">
  <defs
     id="defs1">
    <style
       id="style1">
            .byte-cls-1 {
                fill: #7c0309;
            }
        </style>
  </defs>
  <rect
     width="16"
     height="16"
     id="rect1"
     style="fill:#c34943;" />
  <polygon
     class="byte-cls-1"
     points="15 1 0 1 0 0 16 0 15 1"
     id="polygon2" />
  <polygon
     class="byte-cls-1"
     points="1 15 1 0 0 0 0 16 1 15"
     id="polygon3" />
  <polygon
     class="byte-cls-1"
     points="1 15 16 15 16 16 0 16 1 15"
     id="polygon4" />
  <polygon
     class="byte-cls-1"
     points="15 1 15 16 16 16 16 0 15 1"
     id="polygon5" />
  <path
     d="m 11.289,9.924 q 0,0.813 -0.318,1.357 -0.318,0.544 -0.862,0.869 -0.544,0.318 -1.223,0.452 -0.671,0.134 -1.392,0.134 H 4.635 V 2.981 h 2.665 q 0.685,0 1.322,0.120 0.636,0.120 1.138,0.403 0.509,0.275 0.806,0.756 0.296,0.473 0.296,1.187 0,0.615 -0.254,1.046 -0.254,0.431 -0.671,0.699 -0.410,0.261 -0.876,0.374 0.530,0.091 1.039,0.339 0.516,0.240 0.848,0.728 0.339,0.480 0.339,1.286 z M 9.203,5.583 q 0,-0.735 -0.459,-1.053 Q 8.284,4.211 7.449,4.211 H 6.276 v 2.821 h 1.272 q 0.820,0 1.237,-0.339 0.417,-0.346 0.417,-1.110 z m 0.374,4.334 q 0,-0.650 -0.254,-1.011 Q 9.068,8.538 8.637,8.397 8.206,8.249 7.668,8.249 h -1.392 v 3.217 h 1.322 q 0.466,0 0.919,-0.113 0.459,-0.120 0.756,-0.452 0.304,-0.332 0.304,-0.982 z"
     id="text1"
     style="fill:#ffffff;" />
</svg>
