<?xml version="1.0" encoding="UTF-8" standalone="no"?>
<svg
   viewBox="0 0 16 16"
   xmlns="http://www.w3.org/2000/svg">
  <defs
     id="defs1">
    <style
       id="style1">
            .compound-cls-1 {
                fill: #666666;
            }
            .compound-cls-2 {
                fill: #932A35;
            }
        </style>
  </defs>
  <rect
     class="compound-cls-2"
     width="16"
     height="16"
     id="rect1"
     style="fill:#EEEEEE;fill-opacity:1" />
  <polygon
     class="compound-cls-1"
     points="15 1 0 1 0 0 16 0 15 1"
     id="polygon2" />
  <polygon
     class="compound-cls-1"
     points="1 15 1 0 0 0 0 16 1 15"
     id="polygon3" />
  <polygon
     class="compound-cls-1"
     points="1 15 16 15 16 16 0 16 1 15"
     id="polygon4" />
  <polygon
     class="compound-cls-1"
     points="15 1 15 16 16 16 16 0 15 1"
     id="polygon5" />
  <path
     class="compound-cls-2"
     d="m 10.633,2.814 v 0.916 c 0.381,0 0.694,0.057 0.939,0.171 0.244,0.114 0.349,0.329 0.316,0.644 l -0.207,2.041 c -0.055,0.526 0.036,0.913 0.273,1.162 0.237,0.244 0.605,0.404 1.105,0.482 -0.496,0.074 -0.864,0.229 -1.105,0.466 -0.237,0.233 -0.329,0.623 -0.273,1.167 l 0.207,2.039 c 0.033,0.318 -0.071,0.533 -0.316,0.644 -0.244,0.114 -0.557,0.171 -0.939,0.171 v 0.917 c 0.515,0 0.959,-0.054 1.337,-0.166 0.381,-0.111 0.668,-0.301 0.857,-0.572 0.192,-0.270 0.262,-0.642 0.210,-1.117 L 12.835,9.873 c -0.040,-0.392 0.066,-0.681 0.326,-0.867 0.263,-0.185 0.694,-0.279 1.294,-0.279 v -1 c -0.603,0 -1.035,-0.089 -1.294,-0.271 C 12.901,7.273 12.794,6.984 12.835,6.587 L 13.040,4.664 C 13.092,4.193 13.021,3.823 12.829,3.552 12.640,3.282 12.353,3.091 11.971,2.980 11.593,2.869 11.148,2.814 10.633,2.814 Z"
     id="path3" />
  <path
     class="compound-cls-2"
     d="m 5.454,2.814 c -0.515,0 -0.964,0.054 -1.345,0.166 C 3.730,3.091 3.445,3.282 3.253,3.552 3.064,3.823 2.996,4.195 3.047,4.669 L 3.253,6.587 C 3.293,6.984 3.193,7.273 2.952,7.455 2.711,7.636 2.271,7.726 1.629,7.726 v 1 c 0.641,0 1.081,0.094 1.322,0.279 0.240,0.185 0.341,0.474 0.300,0.867 L 3.047,11.789 c -0.051,0.470 0.016,0.842 0.205,1.113 0.192,0.270 0.477,0.461 0.855,0.572 0.381,0.111 0.830,0.166 1.345,0.166 v -0.917 c -0.381,0 -0.694,-0.057 -0.939,-0.171 C 4.270,12.439 4.164,12.224 4.198,11.906 L 4.403,9.867 C 4.459,9.322 4.371,8.932 4.141,8.699 3.915,8.462 3.569,8.304 3.102,8.226 3.550,8.152 3.894,7.994 4.131,7.75 4.369,7.501 4.459,7.114 4.403,6.587 L 4.198,4.546 C 4.164,4.231 4.270,4.017 4.514,3.902 4.759,3.787 5.072,3.730 5.454,3.730 Z"
     id="path2" />
  <rect
     style="fill:#df5049;"
     id="rect2"
     width="3"
     height="3"
     x="6.5"
     y="2.5"
     ry="0"
     transform="rotate(7.5)" />
  <rect
     style="fill:#2f5fa3;"
     id="rect3"
     width="3"
     height="3"
     x="8"
     y="5.5"
     ry="0"
     transform="rotate(4.5)" />
  <rect
     style="fill:#25b656;"
     id="rect4"
     width="3"
     height="3"
     x="3.5"
     y="11"
     transform="rotate(-13)" />
</svg>
