<svg xmlns="http://www.w3.org/2000/svg" viewBox="0 0 16 16"><defs><style>.int-array-cls-1{fill:#5646bc;}.int-array-cls-2{fill:#291969;}.int-array-cls-3{fill:#fff;}.int-array-cls-4{fill:#f7f8f8;}</style></defs><rect id="rect1" class="int-array-cls-1" width="16" height="16"/><polygon id="polygon2" class="int-array-cls-2" points="15 1 0 1 0 0 16 0 15 1"/><polygon id="polygon3" class="int-array-cls-2" points="1 15 1 0 0 0 0 16 1 15"/><polygon id="polygon4" class="int-array-cls-2" points="1 15 16 15 16 16 0 16 1 15"/><polygon id="polygon5" class="int-array-cls-2" points="15 1 15 16 16 16 16 0 15 1"/><path id="text1" class="int-array-cls-3" d="M10.05,4.59v.87H8.58v5.07h1.47v.88H6v-.88H7.42V5.46H6V4.59Z"/><path class="int-array-cls-4" d="M6,13H3V3H6v.76H4v8.48H6Z"/><path class="int-array-cls-4" d="M13,13H10v-.76h2V3.76H10V3h3Z"/></svg>