<svg xmlns="http://www.w3.org/2000/svg" viewBox="0 0 16 16"><defs><style>.cls-1{fill:#1c7f93;}.cls-2{fill:#063f6a;}.cls-3{fill:#fff;}.cls-4{fill:#f7f8f8;}</style></defs><rect id="rect1" class="cls-1" width="16" height="16"/><polygon id="polygon2" class="cls-2" points="15 1 0 1 0 0 16 0 15 1"/><polygon id="polygon3" class="cls-2" points="1 15 1 0 0 0 0 16 1 15"/><polygon id="polygon4" class="cls-2" points="1 15 16 15 16 16 0 16 1 15"/><polygon id="polygon5" class="cls-2" points="15 1 15 16 16 16 16 0 15 1"/><path id="text1" class="cls-3" d="M5.9,11.41V4.59H7v5.87H10.1l-.12.95Z"/><path class="cls-4" d="M6,13H3V3H6v.76H4v8.48H6Z"/><path class="cls-4" d="M13,13H10v-.76h2V3.76H10V3h3Z"/></svg>