<?xml version="1.0" encoding="UTF-8" standalone="no"?>
<svg
   viewBox="0 0 16 16"
   xmlns="http://www.w3.org/2000/svg">
  <defs
     id="defs1">
    <style
       id="style1">
            .short-cls-1 {
                fill: #69064c;
            }
        </style>
  </defs>
  <rect
     width="16"
     height="16"
     id="rect1"
     style="fill:#bc3396;" />
  <polygon
     class="short-cls-1"
     points="15 1 0 1 0 0 16 0 15 1"
     id="polygon2" />
  <polygon
     class="short-cls-1"
     points="1 15 1 0 0 0 0 16 1 15"
     id="polygon3" />
  <polygon
     class="short-cls-1"
     points="1 15 16 15 16 16 0 16 1 15"
     id="polygon4" />
  <polygon
     class="short-cls-1"
     points="15 1 15 16 16 16 16 0 15 1"
     id="polygon5" />
  <path
     d="m 11.246,9.981 q 0,0.869 -0.445,1.534 -0.438,0.664 -1.272,1.039 -0.827,0.374 -2.000,0.374 -1.194,0 -2.085,-0.353 Q 4.550,12.222 3.935,11.621 L 4.833,10.617 q 0.516,0.480 1.173,0.749 0.657,0.268 1.513,0.268 0.827,0 1.421,-0.388 0.600,-0.395 0.600,-1.187 0,-0.424 -0.176,-0.721 Q 9.189,9.033 8.750,8.800 8.319,8.560 7.541,8.326 5.993,7.867 5.194,7.216 4.395,6.566 4.395,5.420 q 0,-0.791 0.431,-1.385 0.438,-0.593 1.194,-0.919 Q 6.785,2.783 7.746,2.783 q 1.060,0 1.852,0.311 Q 10.391,3.398 11.013,3.957 L 10.150,4.932 Q 9.634,4.487 9.040,4.282 8.453,4.070 7.845,4.070 q -0.749,0 -1.258,0.318 -0.509,0.311 -0.509,0.940 0,0.381 0.205,0.650 0.212,0.261 0.707,0.494 0.502,0.226 1.371,0.487 0.820,0.240 1.470,0.593 0.657,0.353 1.032,0.933 0.381,0.572 0.381,1.491 z"
     id="text1"
     style="fill:#ffffff;" />
</svg>
